<?xml version="1.0" encoding="UTF-8"?>
<svg id="Layer_2" data-name="Layer 2" xmlns="http://www.w3.org/2000/svg" version="1.1" xmlns:xlink="http://www.w3.org/1999/xlink" viewBox="0 0 665 179">
  <defs>
    <style>
      .cls-1 {
        fill: url(#linear-gradient);
      }

      .cls-1, .cls-2, .cls-3, .cls-4, .cls-5, .cls-6, .cls-7, .cls-8, .cls-9 {
        stroke-width: 0px;
      }

      .cls-2 {
        fill: url(#linear-gradient-6);
      }

      .cls-3 {
        fill: url(#linear-gradient-5);
      }

      .cls-4 {
        fill: #26617f;
      }

      .cls-5 {
        fill: url(#linear-gradient-2);
      }

      .cls-6 {
        fill: url(#linear-gradient-7);
      }

      .cls-7 {
        fill: url(#linear-gradient-3);
      }

      .cls-8 {
        fill: url(#linear-gradient-8);
      }

      .cls-9 {
        fill: url(#linear-gradient-4);
      }
    </style>
    <linearGradient id="linear-gradient" x1="537.99" y1="107.22" x2="662" y2="107.22" gradientUnits="userSpaceOnUse">
      <stop offset=".25" stop-color="#01b0da"/>
      <stop offset=".45" stop-color="#02add5"/>
      <stop offset=".59" stop-color="#04a8ce"/>
      <stop offset=".85" stop-color="#248fa9"/>
      <stop offset="1" stop-color="#338599"/>
    </linearGradient>
    <linearGradient id="linear-gradient-2" x1="589.47" y1="141.46" x2="611.15" y2="90.39" gradientUnits="userSpaceOnUse">
      <stop offset=".65" stop-color="#01b0da"/>
      <stop offset=".74" stop-color="#0189aa"/>
      <stop offset=".92" stop-color="#014a5a"/>
      <stop offset="1" stop-color="#02313b"/>
    </linearGradient>
    <linearGradient id="linear-gradient-3" x1="537.99" y1="75.05" x2="662" y2="75.05" gradientUnits="userSpaceOnUse">
      <stop offset=".51" stop-color="#01b0da"/>
      <stop offset="1" stop-color="#2a7384"/>
    </linearGradient>
    <linearGradient id="linear-gradient-4" x1="563.11" y1="109.76" x2="598.01" y2="27.54" gradientUnits="userSpaceOnUse">
      <stop offset="0" stop-color="#6fceea"/>
      <stop offset=".03" stop-color="#67cbe8"/>
      <stop offset=".12" stop-color="#49c2e4"/>
      <stop offset=".23" stop-color="#30bbe0"/>
      <stop offset=".36" stop-color="#1cb5dd"/>
      <stop offset=".5" stop-color="#0fb2db"/>
      <stop offset=".67" stop-color="#07afda"/>
      <stop offset="1" stop-color="#05afda"/>
    </linearGradient>
    <linearGradient id="linear-gradient-5" x1="451.39" y1="107.18" x2="575.4" y2="107.18" gradientUnits="userSpaceOnUse">
      <stop offset=".25" stop-color="#0090b3"/>
      <stop offset=".4" stop-color="#018dae"/>
      <stop offset=".51" stop-color="#0588a7"/>
      <stop offset=".52" stop-color="#0587a5"/>
      <stop offset="1" stop-color="#276372"/>
    </linearGradient>
    <linearGradient id="linear-gradient-6" x1="502.87" y1="141.41" x2="524.55" y2="90.34" gradientUnits="userSpaceOnUse">
      <stop offset=".44" stop-color="#0090b3"/>
      <stop offset=".71" stop-color="#045366"/>
      <stop offset="1" stop-color="#091416"/>
    </linearGradient>
    <linearGradient id="linear-gradient-7" x1="451.39" y1="75.01" x2="575.4" y2="75.01" gradientUnits="userSpaceOnUse">
      <stop offset=".44" stop-color="#0090b3"/>
      <stop offset=".56" stop-color="#07809e"/>
      <stop offset=".85" stop-color="#185e6f"/>
      <stop offset="1" stop-color="#1f515d"/>
    </linearGradient>
    <linearGradient id="linear-gradient-8" x1="476.51" y1="109.72" x2="511.41" y2="27.5" gradientUnits="userSpaceOnUse">
      <stop offset="0" stop-color="#5cabc2"/>
      <stop offset=".08" stop-color="#45a4be"/>
      <stop offset=".2" stop-color="#2d9cba"/>
      <stop offset=".32" stop-color="#1997b6"/>
      <stop offset=".47" stop-color="#0c93b4"/>
      <stop offset=".66" stop-color="#0490b3"/>
      <stop offset="1" stop-color="#0290b3"/>
    </linearGradient>
  </defs>
  <g>
    <path class="cls-4" d="M28.19,35.29h10.22l20.36,51.71h-10.47l-4.14-10.65h-21.6l-4.31,10.65H7.78l20.41-51.71ZM33.36,49l-7.1,17.75h14.16l-7.06-17.75Z"/>
    <path class="cls-4" d="M65.44,48.75h9.93v18.42c0,3.59.25,6.08.76,7.47.5,1.39,1.32,2.48,2.43,3.25,1.12.77,2.49,1.16,4.13,1.16s3.02-.38,4.17-1.14c1.14-.76,1.99-1.88,2.54-3.36.41-1.1.61-3.46.61-7.07v-18.74h9.82v16.21c0,6.68-.54,11.25-1.62,13.71-1.32,3-3.26,5.3-5.83,6.91-2.57,1.6-5.83,2.41-9.79,2.41-4.29,0-7.77-.94-10.42-2.81-2.65-1.88-4.52-4.49-5.6-7.84-.77-2.32-1.15-6.54-1.15-12.66v-15.93Z"/>
    <path class="cls-4" d="M110.88,34.65h9.82v14.1h5.83v8.26h-5.83v29.99h-9.82v-29.99h-5.04v-8.26h5.04v-14.1Z"/>
    <path class="cls-4" d="M150.18,47.77c3.69,0,7.17.9,10.42,2.71,3.25,1.81,5.79,4.25,7.61,7.35,1.82,3.09,2.73,6.43,2.73,10.02s-.92,6.98-2.75,10.12c-1.83,3.14-4.34,5.6-7.5,7.37-3.17,1.77-6.66,2.65-10.47,2.65-5.61,0-10.4-1.95-14.37-5.85-3.97-3.9-5.95-8.64-5.95-14.22,0-5.98,2.24-10.96,6.73-14.94,3.93-3.47,8.46-5.2,13.56-5.2ZM150.34,56.8c-3.05,0-5.59,1.04-7.62,3.11-2.03,2.07-3.05,4.73-3.05,7.96s1,6.02,3.01,8.09c2.01,2.06,4.55,3.09,7.62,3.09s5.63-1.04,7.68-3.13c2.04-2.09,3.06-4.77,3.06-8.05s-1-5.95-3.01-8c-2.01-2.05-4.57-3.08-7.69-3.08Z"/>
    <path class="cls-4" d="M205.79,35.29h9.82l12.27,36.07,12.38-36.07h9.81l8.88,51.71h-9.74l-5.68-32.66-11.24,32.66h-8.88l-11.14-32.66-5.81,32.66h-9.82l9.16-51.71Z"/>
    <path class="cls-4" d="M284.28,47.77c3.69,0,7.17.9,10.42,2.71,3.25,1.81,5.79,4.25,7.61,7.35s2.73,6.43,2.73,10.02-.92,6.98-2.75,10.12c-1.83,3.14-4.34,5.6-7.5,7.37-3.17,1.77-6.66,2.65-10.47,2.65-5.61,0-10.4-1.95-14.37-5.85-3.97-3.9-5.96-8.64-5.96-14.22,0-5.98,2.24-10.96,6.73-14.94,3.93-3.47,8.46-5.2,13.56-5.2ZM284.44,56.8c-3.05,0-5.59,1.04-7.62,3.11s-3.04,4.73-3.04,7.96,1,6.02,3.01,8.09c2.01,2.06,4.55,3.09,7.62,3.09s5.63-1.04,7.68-3.13c2.04-2.09,3.06-4.77,3.06-8.05s-1-5.95-3.01-8c-2.01-2.05-4.57-3.08-7.7-3.08Z"/>
    <path class="cls-4" d="M313.06,48.75h9.82v3.92c2.23-1.83,4.25-3.11,6.05-3.83s3.66-1.08,5.55-1.08c3.88,0,7.17,1.32,9.88,3.97,2.27,2.25,3.41,5.58,3.41,9.98v25.28h-9.71v-16.75c0-4.56-.21-7.6-.63-9.09s-1.15-2.64-2.19-3.42c-1.04-.78-2.33-1.18-3.86-1.18-1.99,0-3.69.65-5.12,1.95s-2.41,3.1-2.96,5.39c-.29,1.19-.43,3.78-.43,7.76v15.35h-9.82v-38.25Z"/>
    <path class="cls-4" d="M396.5,70.65h-31.56c.46,2.72,1.67,4.88,3.65,6.49,1.98,1.61,4.5,2.41,7.57,2.41,3.67,0,6.82-1.25,9.46-3.76l8.28,3.8c-2.06,2.86-4.53,4.97-7.41,6.35-2.88,1.37-6.3,2.06-10.25,2.06-6.14,0-11.14-1.89-15-5.68-3.86-3.78-5.79-8.53-5.79-14.22s1.93-10.68,5.78-14.54c3.85-3.85,8.68-5.78,14.48-5.78,6.17,0,11.18,1.93,15.04,5.78,3.86,3.86,5.79,8.95,5.79,15.28l-.04,1.83ZM386.68,63.09c-.65-2.13-1.93-3.87-3.84-5.2s-4.13-2-6.65-2c-2.74,0-5.14.75-7.21,2.25-1.3.94-2.5,2.59-3.6,4.96h21.3Z"/>
    <path class="cls-4" d="M400.11,48.75h10.04l10.17,24,11.22-24h10.07l-24.52,52.24h-10.14l8.05-16.85-14.88-35.4Z"/>
  </g>
  <g>
    <path class="cls-4" d="M47.89,150.01l5.05-34.48h.57l14.34,28.29,14.21-28.29h.56l5.08,34.48h-3.46l-3.49-24.66-12.48,24.66h-.9l-12.62-24.84-3.47,24.84h-3.41Z"/>
    <path class="cls-4" d="M106.44,123.85c4.02,0,7.35,1.42,10,4.27,2.4,2.59,3.6,5.66,3.6,9.21s-1.27,6.68-3.81,9.34c-2.54,2.66-5.8,4-9.79,4s-7.28-1.33-9.82-4-3.81-5.78-3.81-9.34,1.2-6.59,3.6-9.19c2.64-2.86,5.98-4.29,10.02-4.29ZM106.43,127.06c-2.79,0-5.19,1.01-7.2,3.02s-3.01,4.45-3.01,7.31c0,1.84.46,3.56,1.37,5.16.91,1.59,2.15,2.82,3.71,3.69s3.27,1.3,5.13,1.3,3.57-.43,5.13-1.3c1.56-.87,2.79-2.1,3.71-3.69.91-1.59,1.37-3.31,1.37-5.16,0-2.86-1.01-5.3-3.02-7.31s-4.41-3.02-7.19-3.02Z"/>
    <path class="cls-4" d="M129.18,115.04h3.36v9.47h5.33v2.84h-5.33v22.66h-3.36v-22.66h-4.58v-2.84h4.58v-9.47Z"/>
    <path class="cls-4" d="M155.26,123.85c4.02,0,7.35,1.42,10,4.27,2.4,2.59,3.6,5.66,3.6,9.21s-1.27,6.68-3.81,9.34c-2.54,2.66-5.8,4-9.79,4s-7.28-1.33-9.82-4-3.81-5.78-3.81-9.34,1.2-6.59,3.6-9.19c2.64-2.86,5.98-4.29,10.02-4.29ZM155.24,127.06c-2.79,0-5.19,1.01-7.2,3.02s-3.01,4.45-3.01,7.31c0,1.84.46,3.56,1.37,5.16.91,1.59,2.15,2.82,3.71,3.69s3.27,1.3,5.13,1.3,3.57-.43,5.13-1.3c1.56-.87,2.79-2.1,3.71-3.69.91-1.59,1.37-3.31,1.37-5.16,0-2.86-1.01-5.3-3.02-7.31s-4.41-3.02-7.19-3.02Z"/>
    <path class="cls-4" d="M173.8,124.51h3.43v3.73c1.02-1.47,2.1-2.57,3.24-3.29,1.14-.73,2.32-1.09,3.55-1.09.93,0,1.92.29,2.97.87l-1.75,2.77c-.7-.3-1.3-.45-1.77-.45-1.12,0-2.2.45-3.24,1.35-1.04.9-1.83,2.29-2.38,4.18-.42,1.45-.62,4.39-.62,8.81v8.62h-3.43v-25.5Z"/>
    <path class="cls-4" d="M204,115.53h17.68v3.38h-14.15v10.8h14.15v3.38h-14.15v16.92h-3.53v-34.48Z"/>
    <path class="cls-4" d="M228.43,114.01c.76,0,1.42.27,1.96.8.54.53.81,1.17.81,1.92s-.27,1.37-.81,1.9c-.54.53-1.19.8-1.96.8s-1.39-.27-1.93-.8-.81-1.16-.81-1.9.27-1.39.81-1.92,1.19-.8,1.93-.8ZM226.76,124.51h3.36v25.5h-3.36v-25.5Z"/>
    <path class="cls-4" d="M237.1,124.51h3.36v4.57c1.34-1.75,2.83-3.06,4.46-3.93,1.63-.87,3.41-1.3,5.33-1.3s3.68.48,5.19,1.45c1.51.97,2.63,2.27,3.35,3.91s1.08,4.2,1.08,7.66v13.12h-3.36v-12.16c0-2.94-.12-4.9-.37-5.88-.39-1.69-1.14-2.96-2.24-3.81s-2.54-1.28-4.32-1.28c-2.03,0-3.85.66-5.46,1.97s-2.67,2.94-3.18,4.88c-.32,1.27-.48,3.58-.48,6.94v9.35h-3.36v-25.5Z"/>
    <path class="cls-4" d="M293.06,124.51v25.5h-3.31v-4.38c-1.41,1.67-2.99,2.93-4.74,3.77s-3.67,1.27-5.75,1.27c-3.69,0-6.85-1.31-9.46-3.93-2.61-2.62-3.92-5.8-3.92-9.55s1.32-6.81,3.96-9.42,5.81-3.91,9.52-3.91c2.14,0,4.08.45,5.82,1.34s3.26,2.23,4.57,4.01v-4.69h3.31ZM279.64,127.01c-1.87,0-3.59.45-5.17,1.35-1.58.9-2.84,2.16-3.77,3.78s-1.4,3.34-1.4,5.15.47,3.51,1.41,5.15c.94,1.64,2.21,2.91,3.8,3.83,1.59.91,3.29,1.37,5.12,1.37s3.58-.45,5.22-1.36,2.91-2.13,3.8-3.68,1.33-3.29,1.33-5.22c0-2.95-1-5.42-2.98-7.4-1.99-1.98-4.44-2.97-7.34-2.97Z"/>
    <path class="cls-4" d="M300.62,124.51h3.36v4.57c1.34-1.75,2.83-3.06,4.46-3.93,1.63-.87,3.41-1.3,5.33-1.3s3.68.48,5.19,1.45c1.51.97,2.63,2.27,3.35,3.91s1.08,4.2,1.08,7.66v13.12h-3.36v-12.16c0-2.94-.12-4.9-.37-5.88-.39-1.69-1.14-2.96-2.24-3.81s-2.54-1.28-4.32-1.28c-2.03,0-3.85.66-5.46,1.97s-2.67,2.94-3.18,4.88c-.32,1.27-.48,3.58-.48,6.94v9.35h-3.36v-25.5Z"/>
    <path class="cls-4" d="M355.91,129.8l-2.66,1.62c-2.3-2.98-5.44-4.48-9.42-4.48-3.18,0-5.82,1-7.92,3s-3.15,4.42-3.15,7.28c0,1.86.48,3.61,1.45,5.24.97,1.64,2.29,2.91,3.98,3.82,1.69.91,3.57,1.36,5.67,1.36,3.83,0,6.96-1.49,9.39-4.48l2.66,1.71c-1.25,1.84-2.92,3.26-5.03,4.27-2.1,1.01-4.5,1.52-7.18,1.52-4.13,0-7.55-1.28-10.27-3.84s-4.08-5.68-4.08-9.35c0-2.47.64-4.76,1.91-6.88s3.02-3.77,5.24-4.96,4.71-1.78,7.46-1.78c1.73,0,3.39.26,5,.77,1.61.52,2.97,1.19,4.09,2.02s2.07,1.88,2.85,3.16Z"/>
    <path class="cls-4" d="M384.34,141.54l2.83,1.45c-.93,1.78-2,3.22-3.22,4.31-1.22,1.09-2.59,1.93-4.11,2.5s-3.24.86-5.16.86c-4.26,0-7.59-1.36-9.99-4.09s-3.6-5.81-3.6-9.25c0-3.23,1.02-6.12,3.05-8.65,2.58-3.22,6.03-4.83,10.35-4.83s8,1.65,10.66,4.95c1.89,2.33,2.85,5.23,2.88,8.72h-23.48c.06,2.96,1.03,5.39,2.91,7.28,1.87,1.89,4.19,2.84,6.94,2.84,1.33,0,2.62-.23,3.88-.68,1.26-.45,2.33-1.05,3.21-1.8s1.83-1.95,2.86-3.62ZM384.34,134.68c-.45-1.75-1.1-3.15-1.96-4.2s-1.99-1.89-3.4-2.53-2.89-.96-4.44-.96c-2.56,0-4.76.8-6.61,2.41-1.34,1.17-2.36,2.93-3.05,5.27h19.45Z"/>
  </g>
  <g>
    <polygon class="cls-1" points="537.99 173 609.16 173 662 92.02 629.05 41.44 537.99 173"/>
    <polygon class="cls-5" points="566.88 131.87 598.98 85.22 619.98 132.4 597.3 124.24 566.88 131.87"/>
    <polygon class="cls-7" points="537.99 7.04 607.81 7.04 662 92.02 626.95 143.06 537.99 7.04"/>
    <polygon class="cls-9" points="537.99 7.04 621.34 134.48 549.72 7.04 537.99 7.04"/>
  </g>
  <g>
    <polygon class="cls-3" points="451.39 172.96 522.56 172.96 575.4 91.98 542.45 41.39 451.39 172.96"/>
    <polygon class="cls-2" points="480.28 131.82 512.38 85.18 533.38 132.35 510.7 124.2 480.28 131.82"/>
    <polygon class="cls-6" points="451.39 7 521.22 7 575.4 91.98 540.36 143.02 451.39 7"/>
    <polygon class="cls-8" points="451.39 7 534.74 134.44 463.12 7 451.39 7"/>
  </g>
</svg>